#!OML:ASF X:\für Bonn\!DataBase\2005_08_12_Daniel\c3d\Daniel.ASF
:FULLY-SPECIFIED
:DEGREES
2843
root -1.81193 17.3777 5.91034 -187.573 208.885 -167.346
lowerback 12.3286 0.850121 -3.7227
upperback 1.81399 0.501889 -1.86295
thorax -5.02489 0.287325 0.065756
lowerneck -5.35725 -12.5574 -11.94
upperneck 6.20314 -16.8795 11.5453
head 4.72464 -8.17838 4.20008
rclavicle 4.57205e-015 -1.35174e-014
rhumerus -60.432 23.2902 -108.631
rradius 106.575
rwrist -2.46841
rhand -19.2173 32.7531
rfingers 7.12502
rthumb 7.0954 2.89201
lclavicle 4.57205e-015 -1.35174e-014
lhumerus -75.3281 -0.440627 92.3672
lradius 98.9273
lwrist 17.7088
lhand 0.297508 -13.1695
lfingers 7.12502
lthumb 25.8753 15.09
rfemur 7.38688 4.50141 26.9489
rtibia 36.8236
rfoot 8.40551 3.26274
rtoes 10.8318
lfemur -33.0687 -0.215418 -19.7024
ltibia 72.9466
lfoot -4.29982 1.42278
ltoes -12.4121
2844
root -1.9331 17.4738 6.22021 -187.713 209.62 -167.048
lowerback 12.0033 1.02604 -4.0843
upperback 1.75827 0.695111 -2.01156
thorax -4.9115 0.386457 0.0854922
lowerneck -5.24483 -12.5611 -11.8388
upperneck 6.47494 -16.9228 11.4658
head 4.77841 -8.20152 4.15784
rclavicle -2.68359e-014 -4.77083e-015
rhumerus -61.3309 24.1417 -109
rradius 107.312
rwrist -2.02547
rhand -18.9622 33.3433
rfingers 7.12502
rthumb 7.34165 3.49071
lclavicle -2.68359e-014 -4.77083e-015
lhumerus -76.0869 -0.745243 92.2413
lradius 99.7413
lwrist 18.2511
lhand 0.425865 -13.2589
lfingers 7.12502
lthumb 25.9982 14.9826
rfemur 7.92816 4.72144 26.492
rtibia 36.6685
rfoot 11.4005 2.15924
rtoes 9.48188
lfemur -32.4106 -1.02388 -20.0157
ltibia 69.1543
lfoot -3.76384 1.96465
ltoes -12.3745
2845
root -2.05618 17.5581 6.52993 -187.828 210.31 -166.812
lowerback 11.683 1.16262 -4.37009
upperback 1.7068 0.848198 -2.16602
thorax -4.79492 0.464236 0.064345
lowerneck -5.09052 -12.561 -11.7492
upperneck 6.64235 -16.9604 11.4412
head 4.79875 -8.22284 4.13954
rclavicle 1.5207e-014 -7.95139e-015
rhumerus -62.2195 24.7851 -109.35
rradius 107.762
rwrist -1.665
rhand -18.8425 33.9308
rfingers 7.12502
rthumb 7.45719 4.08227
lclavicle 1.5207e-014 -7.95139e-015
lhumerus -76.8081 -0.938484 92.0415
lradius 100.558
lwrist 18.6357
lhand 0.589075 -13.4694
lfingers 7.12502
lthumb 26.1545 14.7491
rfemur 8.369 4.98358 26.1437
rtibia 36.7656
rfoot 13.9402 0.910976
rtoes 8.2502
lfemur -31.7122 -1.92098 -20.2371
ltibia 65.4046
lfoot -3.29603 2.66246
ltoes -12.8155
2846
root -2.18235 17.6285 6.83749 -187.894 210.899 -166.644
lowerback 11.357 1.25464 -4.6209
upperback 1.65198 0.95067 -2.2952
thorax -4.67716 0.516689 0.0591306
lowerneck -4.87856 -12.582 -11.7122
upperneck 6.73338 -17.0265 11.465
head 4.79837 -8.26041 4.14527
rclavicle -5.46658e-015 1.59028e-015
rhumerus -63.0198 25.1844 -109.568
rradius 107.937
rwrist -1.36291
rhand -18.8279 34.4357
rfingers 7.12502
rthumb 7.4713 4.5876
lclavicle -5.46658e-015 1.59028e-015
lhumerus -77.5298 -1.11282 91.8651
lradius 101.481
lwrist 19.0077
lhand 0.634108 -13.5495
lfingers 7.12502
lthumb 26.1976 14.6626
rfemur 8.66604 5.18649 25.8991
rtibia 37.1208
rfoot 15.9549 -0.323517
rtoes 7.13466
lfemur -31.0252 -2.9358 -20.3435
ltibia 61.7423
lfoot -2.9137 3.33587
ltoes -13.5074
2847
root -2.30921 17.6812 7.1442 -188.016 211.437 -166.448
lowerback 11.0998 1.32127 -4.91037
upperback 1.58956 1.01289 -2.39953
thorax -4.60537 0.55077 0.106826
lowerneck -4.61644 -12.596 -11.8261
upperneck 6.79199 -17.08 11.5492
head 4.79683 -8.29523 4.19532
rclavicle -8.50798e-014 -1.59028e-015
rhumerus -63.7302 25.3795 -109.636
rradius 107.803
rwrist -1.10885
rhand -18.8432 34.887
rfingers 7.12502
rthumb 7.45652 5.0384
lclavicle -8.50798e-014 -1.59028e-015
lhumerus -78.1823 -1.22174 91.7201
lradius 102.461
lwrist 19.2645
lhand 0.54794 -13.466
lfingers 7.12502
lthumb 26.1151 14.7583
rfemur 8.93462 5.51719 25.731
rtibia 37.6965
rfoot 17.3312 -1.7424
rtoes 6.12072
lfemur -30.3144 -3.94935 -20.4215
ltibia 58.2549
lfoot -2.66595 3.71482
ltoes -14.7823
2848
root -2.44241 17.7214 7.44764 -188.04 211.907 -166.354
lowerback 10.7829 1.35074 -5.17212
upperback 1.54435 1.03836 -2.46421
thorax -4.48127 0.565522 0.187792
lowerneck -4.39678 -12.6184 -11.9309
upperneck 6.80033 -17.1385 11.6479
head 4.78815 -8.33087 4.24642
rclavicle 1.98785e-015 -1.11319e-014
rhumerus -64.2148 25.3934 -109.531
rradius 107.378
rwrist -0.940231
rhand -19.0512 35.1463
rfingers 7.12502
rthumb 7.25569 5.29074
lclavicle 1.98785e-015 -1.11319e-014
lhumerus -78.7903 -1.41754 91.6371
lradius 103.508
lwrist 19.5949
lhand 0.478162 -13.2975
lfingers 7.12502
lthumb 26.0483 14.9367
rfemur 9.08354 5.90792 25.7564
rtibia 38.4386
rfoot 18.0057 -3.15045
rtoes 4.95767
lfemur -29.6879 -4.85586 -20.3481
ltibia 55.0201
lfoot -2.57325 3.75556
ltoes -16.8351
2849
root -2.57694 17.7471 7.745 -188.093 212.269 -166.286
lowerback 10.5593 1.33339 -5.44605
upperback 1.49392 0.994089 -2.5367
thorax -4.41145 0.546717 0.275475
lowerneck -4.06606 -12.6319 -12.0072
upperneck 6.66489 -17.1886 11.7786
head 4.71688 -8.36683 4.31501
rclavicle -3.08116e-014 2.06736e-014
rhumerus -64.616 25.2155 -109.402
rradius 106.733
rwrist -0.932618
rhand -19.2401 35.2187
rfingers 7.12502
rthumb 7.07339 5.35691
lclavicle -3.08116e-014 2.06736e-014
lhumerus -79.4556 -1.70259 91.5564
lradius 104.638
lwrist 19.8601
lhand 0.276561 -12.9969
lfingers 7.12502
lthumb 25.8552 15.2655
rfemur 9.22019 6.31152 25.9092
rtibia 39.3173
rfoot 18.0805 -4.45695
rtoes 3.47193
lfemur -29.1076 -5.61938 -20.2141
ltibia 52.0807
lfoot -2.58756 3.26523
ltoes -19.636
2850
root -2.70874 17.7557 8.03825 -188.102 212.644 -166.397
lowerback 10.3988 1.29944 -5.55589
upperback 1.48781 0.94765 -2.55485
thorax -4.32797 0.523741 0.327742
lowerneck -3.80108 -12.6636 -12.2056
upperneck 6.5239 -17.2568 11.99
head 4.67522 -8.40908 4.41823
rclavicle 8.11041e-014 1.59028e-015
rhumerus -64.7468 24.9873 -109.136
rradius 105.852
rwrist -1.17187
rhand -19.4147 34.9171
rfingers 7.12502
rthumb 6.90488 5.04973
lclavicle 8.11041e-014 1.59028e-015
lhumerus -80.1354 -2.02004 91.497
lradius 105.862
lwrist 20.2487
lhand 0.169429 -12.6566
lfingers 7.12502
lthumb 25.7526 15.6207
rfemur 9.32869 6.73559 26.2626
rtibia 40.3154
rfoot 17.7437 -5.47757
rtoes 2.56553
lfemur -28.6128 -6.30028 -19.912
ltibia 49.501
lfoot -2.68108 2.51596
ltoes -22.126
2851
root -2.8408 17.7502 8.32814 -188.086 212.97 -166.493
lowerback 10.1972 1.23594 -5.7558
upperback 1.48839 0.858661 -2.52515
thorax -4.21431 0.480732 0.486831
lowerneck -3.49088 -12.6768 -12.4555
upperneck 6.30963 -17.2979 12.2321
head 4.60817 -8.44093 4.54569
rclavicle 1.3418e-014 -5.08889e-014
rhumerus -64.7562 24.7007 -108.794
rradius 104.784
rwrist -1.54364
rhand -19.5978 34.3465
rfingers 7.12502
rthumb 6.72813 4.47342
lclavicle 1.3418e-014 -5.08889e-014
lhumerus -80.7547 -2.318 91.4905
lradius 107.045
lwrist 20.5351
lhand 0.153101 -12.3101
lfingers 7.12502
lthumb 25.737 15.9695
rfemur 9.27751 7.05824 26.5856
rtibia 41.4824
rfoot 17.036 -6.09291
rtoes 1.32242
lfemur -28.2946 -6.93526 -19.6672
ltibia 47.2772
lfoot -2.69293 1.77134
ltoes -23.5653
